<svg id="Layer_1" data-name="Layer 1" xmlns="http://www.w3.org/2000/svg" viewBox="0 0 80.001 80">
  <defs>
    <style>
      .cls-1 {
        fill: #018cb7;
      }
    </style>
  </defs>
  <title>c464be52-3f72-491e-b3d2-19d59b2b3037</title>
  <path class="cls-1" d="M40,0A40.006,40.006,0,0,0,13.627,70.084a1.668,1.668,0,0,0,2.2-2.507A36.673,36.673,0,1,1,40,76.667c-4.963,0-8.123-.9-9.127-2.617-1.277-2.173.72-6.06,2.3-8.907l.907.4a7.027,7.027,0,0,0,2.863.607,7.117,7.117,0,0,0,6.51-4.237l1.467-3.32a7.126,7.126,0,0,0-3.63-9.38l-4.98-2.2c-.527-.233-1.047-1.38-1.027-3.417a22.236,22.236,0,0,1,2.03-8.207c2.833-6.407,6.677-9.12,7.917-8.567l4.98,2.2a7.254,7.254,0,0,0,9.377-3.633l1.467-3.323a7.117,7.117,0,0,0-3.63-9.38l-4.977-2.2a8.049,8.049,0,0,0-3.26-.667c-7.157,0-16.027,8.753-21.567,21.287-6.55,14.823-5.9,28.983,1.463,32.24l1.02.45c-2.01,3.633-4.27,8.263-2.113,11.947C29.681,78.606,33.608,80,40,80A40,40,0,0,0,40,0ZM30.673,32.448c4.867-11,12.827-19.3,18.52-19.3a4.684,4.684,0,0,1,1.91.387l4.977,2.2a3.786,3.786,0,0,1,1.93,4.983l-1.467,3.323a3.847,3.847,0,0,1-4.983,1.93l-4.98-2.2a4.1,4.1,0,0,0-1.7-.35c-4.093,0-8.28,5.333-10.617,10.617a25.112,25.112,0,0,0-2.313,9.517c-.04,3.327,1.03,5.637,3.007,6.51l4.977,2.193a3.791,3.791,0,0,1,1.933,4.987L40.4,60.568A3.853,3.853,0,0,1,35.42,62.5l-4.98-2.207c-4.873-2.157-5.943-13.86.233-27.847Z"/>
</svg>
