<svg id="Layer_1" data-name="Layer 1" xmlns="http://www.w3.org/2000/svg" viewBox="0 0 56.666 80.555">
  <defs>
    <style>
      .cls-1 {
        fill: #018cb7;
      }
    </style>
  </defs>
  <title>cba6ed72-a55a-4143-843a-d429d57542d4</title>
  <path class="cls-1" d="M28.334,35a10,10,0,1,1,10-10A10.013,10.013,0,0,1,28.334,35Zm0-16.667A6.667,6.667,0,1,0,35,25,6.674,6.674,0,0,0,28.334,18.333Z"/>
  <path class="cls-1" d="M28.334,80.553a1.664,1.664,0,0,1-1.667-1.66C26.6,76.36,18.15,58.163,10.61,50.4,6.053,45.709,0,38.319,0,28.333a28.333,28.333,0,1,1,56.666,0c0,8.523-4.237,16.59-12.273,23.327C35.01,59.55,30,76.427,30,78.887v.007h0v.021a1.668,1.668,0,0,1-1.667,1.64Zm0-77.22a25.026,25.026,0,0,0-25,25c0,6.68,3.07,12.953,9.663,19.74,5.58,5.743,11.943,17.253,15.067,24.65,2.18-6.89,6.91-17.493,14.193-23.613C47.3,44.87,53.334,37.817,53.334,28.333A25.026,25.026,0,0,0,28.334,3.333Z"/>
</svg>
