<svg id="Layer_1" data-name="Layer 1" xmlns="http://www.w3.org/2000/svg" viewBox="0 0 79.999 59.999">
  <defs>
    <style>
      .cls-1 {
        fill: #018cb7;
      }
    </style>
  </defs>
  <title>3a6ec72e-2ece-4f11-a68a-d075b5a9c4b1</title>
  <path class="cls-1" d="M71.666,0H8.333A8.345,8.345,0,0,0,0,8.333V51.666A8.342,8.342,0,0,0,8.333,60H71.666A8.34,8.34,0,0,0,80,51.666V8.333A8.34,8.34,0,0,0,71.666,0Zm5,51.663a5,5,0,0,1-5,5H8.333a5,5,0,0,1-5-5V8.33a5.006,5.006,0,0,1,5-5H71.666a5.006,5.006,0,0,1,5,5Z"/>
  <path class="cls-1" d="M51.509,32.25,68.626,13.523a1.667,1.667,0,1,0-2.46-2.25l-20.65,22.59a8.8,8.8,0,0,1-12.887,0L11.942,11.246A1.668,1.668,0,0,0,9.478,13.5L26.631,32.249,9.584,47.816a1.665,1.665,0,0,0,1.123,2.9,1.648,1.648,0,0,0,1.123-.437l17.047-15.57,1.29,1.41a11.944,11.944,0,0,0,17.8,0l1.29-1.41,17.057,15.57a1.666,1.666,0,0,0,2.247-2.46L51.507,32.249Z"/>
</svg>
